<svg width="205" height="40" viewBox="0 0 205 40" xmlns="http://www.w3.org/2000/svg"><title>Group 17</title>
<g fill="none" fill-rule="evenodd"><path d="M22 9v3c0 5.522-4.478 10-10 10H9a9 9 0 1 0 9 9v-3.001c0-5.522 4.477-10 10-10h3a9 9 0 1 0-9-9M0 9a9 9 0 1 0 18 0A9 9 0 0 0 0 9m22 22A9 9 0 1 0 40 31a9 9 0 0 0-18.002 0" fill="#2D9CF6"/><path d="M104.987 29.975c-.124 0-.244-.014-.366-.019-5.557-.195-10.02-4.764-10.02-10.367 0-5.541 4.367-10.07 9.839-10.357.182-.01.362-.028.547-.028.11 0 .217.005.325.008-.319-.015-.61-.022-.858-.022l-.004.01.004-.01c.247 0 .54.007.858.022h.002c.229.011.469.025.726.045.004 0 .008 0 .012.002a.02.02 0 0 1 .005 0c5.226.537 9.316 4.965 9.316 10.33 0 5.727-4.659 10.386-10.386 10.386m25.742-6.692l-.82 1.08-2.712 3.577-2.713 3.576-.82 1.08h-3.371c-.746 0-.987-.486-.536-1.08l3.87-5.102 4.69-6.182.161-.213-10.24-12.955c-.462-.585-.23-1.064.515-1.064h3.444l4.41 5.58 4.222 5.34.4-.527.258-.34 3.434-4.526 3.312-4.366c.393-.47 1.198-1.241 2.297-1.241h8.555V1.666c0-.746.61-1.356 1.356-1.356h1.055c.745 0 1.355.61 1.356 1.356V5.92H163.2v2.41a1.36 1.36 0 0 1-1.356 1.356h-8.993v1.356l.001 4.13v3.791h-.022v.908c0 .655.022.047.022-.563v1.35c-.002.1-.084 4.21 2.04 6.696l.045.043c1.08.991 2.542 1.48 4.468 1.48h4.045c.746 0 1.356.61 1.356 1.356v2.411h-5.4c-3.102 0-5.597-.96-7.418-2.853-2.942-3.061-2.935-7.476-2.922-8.024v-7.924l-.001-4.157H142.4c-.681 0-1.538.412-2.027.934l2.965-3.678-2.966 3.678c-.046.05-.108.095-.147.146l-.48.632-2.683 3.537-3.498 4.611-.485.64-2.03 2.675 2.03-2.676.446.563.395.5 5.75 7.277 8.565 10.364c.462.585.23 1.064-.515 1.064h-3.444l-8.18-9.879-4.935-6.245-.432-.546zM104.987 5.438c7.803 0 14.152 6.349 14.152 14.151 0 .971-.1 1.92-.286 2.837-1.318 6.448-7.034 11.315-13.866 11.315-7.594 0-13.793-6.017-14.12-13.532-.01-.207-.032-.41-.032-.62 0-7.802 6.349-14.151 14.152-14.151zm78.819 4.248h-6.304c-1.927 0-3.39.49-4.469 1.48-.082.07-.16.142-.234.217-1.713 1.782-1.861 4.514-1.872 5.164v.193l.001.039-.001.42V31.287a1.36 1.36 0 0 1-1.356 1.356h-2.41V24.72l.001-6.58v-1.344c-.013-.549-.02-4.963 2.922-8.024a8.771 8.771 0 0 1 2.425-1.778c.371-.184.761-.339 1.164-.476.151-.01.28-.05.387-.127a12.098 12.098 0 0 1 3.441-.472h7.66v2.41a1.36 1.36 0 0 1-1.355 1.356zM87.05 16.687l.001.398.002.397V32.227H84.69c-.732 0-1.33-.599-1.33-1.33V24.41l-.001-6.488v-1.33c0-.024.074-3.243-1.852-5.229-.88-.908-2.066-1.413-3.565-1.574-.334-.036-.664-.074-1.03-.074-2.095 0-3.604.544-4.68 1.665-.071.073-.127.155-.192.232-.712.833-1.118 1.826-1.345 2.714a9.83 9.83 0 0 0-.283 1.746v.002c-.02.315-.017.511-.017.519l.001.039V17.082l-.001 1.465v11.849h-.002v.502c0 .73-.598 1.329-1.329 1.329h-1.034a1.333 1.333 0 0 1-1.328-1.317v.006-.007l-.002-.011V24.41l.001-.002V16.593c0-.025.074-3.244-1.852-5.23-1.076-1.109-2.58-1.647-4.595-1.647-2.096 0-3.603.544-4.68 1.664-.142.147-.27.302-.39.461-.618.814-.97 1.753-1.173 2.583l-.001.004c-.29 1.189-.273 2.148-.273 2.165v.04l.001.038v.411l-.002 1.741v13.404h-2.364c-.73 0-1.329-.599-1.329-1.33l.002-6.44v-7.77c-.012-.54-.018-4.867 2.867-7.867 1.785-1.856 4.231-2.798 7.271-2.798 1.28 0 2.44.168 3.495.485a9.5 9.5 0 0 1 1.4.558c-.027 0-.05.002-.075.003.025-.001.048-.003.075-.002a8.466 8.466 0 0 1 2.448 1.754l.394.41s.063.063.163.176c.342.294.798.237 1.094-.177l.393-.41c1.785-1.855 4.231-2.797 7.272-2.797 2.059 0 3.82.421 5.298 1.239a8.547 8.547 0 0 1 2.044 1.56c2.237 2.325 2.734 5.44 2.84 6.978a14.715 14.715 0 0 0 .017.29c.012.293.011.505.009.598zm115.27 14.726c-.997.66-2.386 1.137-4.343 1.137h-6.838c-.017 0-.154-.018-.291-.034a23.792 23.792 0 0 0-.291-.035l-.016-.01c-.008 0-.014-.002-.021-.003a8.013 8.013 0 0 1-.576-.115c.078.017.155.032.234.047l.126.025c-.042-.01-.084-.017-.126-.025a8.724 8.724 0 0 1-.238-.048l.004.001a8.93 8.93 0 0 1-.367-.091l.053.014c-.018-.006-.036-.009-.054-.014a8.563 8.563 0 0 1-.988-.334c-.091-.036-.185-.069-.275-.108a6.876 6.876 0 0 1-.39-.186 11.35 11.35 0 0 1-.38-.204c.03.017.06.031.089.048l-.088-.048a8.86 8.86 0 0 1-.53-.326c-.066-.044-.13-.091-.196-.137a8.804 8.804 0 0 1-1.049-.862l-.014-.013a8.854 8.854 0 0 1-1.483-1.902 8.838 8.838 0 0 1-.303-.558l-.088-.195c.03.065.057.13.088.195a8.606 8.606 0 0 1-.335-.792c.02.058.045.115.068.173-.023-.058-.048-.114-.068-.173-.043-.115-.078-.234-.117-.352a11.865 11.865 0 0 1-.153-.523c-.021-.08-.037-.16-.056-.24-.018-.078-.04-.154-.054-.233l-.029-.143v0c-.012-.069-.018-.14-.03-.21l-.03-.221c-.01-.075-.014-.15-.022-.225-.011-.1-.024-.2-.03-.301a8.891 8.891 0 0 1-.026-.554c0-.018-.003-.035-.003-.053 0-.152.015-.3.023-.452v-.003l.005-.047c.012-.177.031-.352.053-.526.018-.145.036-.289.06-.43l.029-.144a8.664 8.664 0 0 1 6.322-6.77 7.845 7.845 0 0 1 .602-.138c.12-.023.24-.053.363-.071l.016-.01c.036-.003.547-.066.583-.069h4.742l.022 2.155c0 1.515-1.713 1.582-1.973 1.584h.194c-.74 0-2.383.024-2.383.054-2.655.046-4.884 2.26-4.914 4.92.029 2.584 2.139 4.731 4.694 4.894h.002c.036.002.072.007.106.012.037.006.073.013.111.014 0 .007.168.014.431.02a172.77 172.77 0 0 0 2.991.033h4.556c.068 0 .127-.029.192-.039l.021.022s.47.013 1.116-.038c.066-.737.018-1.291.018-1.291l-.001-4.773v-6.118c0-.025.076-3.284-1.876-5.295a2.88 2.88 0 0 0-.232-.213c-.785-.716-1.778-1.158-2.999-1.348-.127-.019-.268-.025-.4-.039-.627-.057-1.02-.069-1.02-.069h-5.527a1.35 1.35 0 0 1-1.346-1.346V5.872h6.873c3.078 0 5.555.952 7.362 2.832 1.43 1.486 2.156 3.294 2.526 4.818.386 1.59.383 2.87.376 3.148v1.34l.001 6.6v2.706c-.004.065-.186 2.575-2.482 4.097z" fill="#83909D"/></g></svg>
